# boat 5 (Plane.015) from ShipsBoats.fbx
v 4.237350 -0.000031 -0.000001
v 0.000015 0.932761 46.203316
v -0.000015 0.932761 -46.203316
v 0.000021 30.508781 63.862228
v -0.000021 30.508781 -63.862228
v 0.000015 -0.000031 46.203316
v -4.237350 -0.000031 0.000001
v -0.000015 -0.000031 -46.203316
v 0.000000 35.835587 0.000000
v 0.000021 30.508781 64.410706
v -0.000021 30.508781 -64.410706
v 4.648364 1.197751 0.709684
v 4.648363 1.197751 -0.709687
v 30.716360 9.530869 -0.000010
v 30.838867 9.760674 0.422152
v 31.518480 9.622606 -0.000010
v 30.838867 9.760674 -0.422172
v -4.977697 0.932761 0.000002
v 0.000000 51.826031 0.000000
v -30.716360 9.530869 0.000010
v -30.838867 9.760674 -0.422152
v -31.518480 9.622606 0.000010
v -30.838867 9.760674 0.422172
v 4.977697 0.932761 0.487705
v 4.977697 0.932761 -0.487708
f 3 25 14
f 15 14 2
f 15 2 4
f 2 24 19
f 3 19 25
f 17 16 11
f 17 11 5
f 4 10 16
f 4 16 15
f 6 9 1
f 8 16 1
f 8 1 9
f 1 16 6
f 8 11 16
f 16 10 6
f 18 20 2
f 3 14 17
f 3 17 5
f 3 20 18
f 3 18 19
f 20 23 4
f 20 4 2
f 2 19 18
f 22 21 5
f 22 5 11
f 6 7 9
f 8 7 22
f 8 9 7
f 7 6 22
f 8 22 11
f 22 6 10
f 4 23 22
f 4 22 10
f 3 5 21
f 3 21 20
f 14 15 16
f 14 16 17
f 20 21 22
f 20 22 23
f 19 12 13
f 24 14 25
f 24 2 14
f 12 19 24
f 13 12 24
f 13 24 25
f 19 13 25
